<svg width="28" height="27" fill="none" xmlns="http://www.w3.org/2000/svg"><path d="M14.19 11.378c1.04 0 1.85-.867 1.832-1.812a1.826 1.826 0 00-1.813-1.833c-1.003 0-1.832.81-1.832 1.813s.81 1.832 1.812 1.832z"/><path d="M14.035 0C6.591 0 .535 6.056.535 13.5c0 7.464 6.056 13.5 13.5 13.5 7.464 0 13.5-6.056 13.5-13.5C27.555 6.056 21.5 0 14.035 0zm.193 5.11c2.43 0 4.436 2.006 4.417 4.456a4.42 4.42 0 01-4.494 4.416 4.45 4.45 0 01-4.378-4.436 4.44 4.44 0 014.455-4.435zm4.957 10.415c0 .039-.02.058-.02.096-.057.386-.25.695-.578.907-.212.135-.444.27-.675.386a8.763 8.763 0 01-1.832.675c-.077.019-.077.019-.02.077l1.061 1.06 1.35 1.35a1.288 1.288 0 01-.347 2.083c-.135.077-.29.097-.444.135h-.25c-.02 0-.039 0-.039-.019-.308-.039-.56-.193-.79-.405l-2.334-2.334c-.058-.057-.058-.057-.116 0l-2.353 2.353c-.135.135-.27.232-.443.309-.116.058-.251.077-.367.096h-.25c-.039 0-.058-.019-.097-.019-.52-.096-.868-.386-1.022-.887-.154-.502-.039-.945.328-1.312l.964-.964 1.427-1.427c.058-.058.058-.058-.019-.077-.02 0-.058-.02-.077-.02a8.333 8.333 0 01-2.41-1.022c-.444-.289-.657-.713-.599-1.234.097-.964 1.177-1.485 1.987-.964.154.096.289.173.462.25a5.49 5.49 0 002.816.58c.482-.02.965-.117 1.447-.27.462-.155.867-.367 1.292-.599a1.3 1.3 0 011.87.675c.04.116.058.212.078.328v.193z"/></svg>