<svg width="28" height="27" fill="none" xmlns="http://www.w3.org/2000/svg"><path d="M19.526 15.709c-1.112-1.064-1.192-1.064-.239-2.29 1.192-1.555 2.78-3.519 1.35-3.519h-2.62c-.477 0-.556.327-.715.736-.635 1.555-1.906 3.6-2.382 3.273-.477-.327-.238-1.554-.238-3.518a.65.65 0 00-.16-.654c-.158-.164-.396-.328-.634-.328-.397-.081-.794-.163-1.192-.163-1.508 0-2.54.654-1.985.736 1.032.164.953 2.454.715 3.436-.397 1.718-1.985-1.309-2.7-2.863a.779.779 0 00-.794-.655H5.867c-.317 0-.556.082-.556.327 0 .41 1.986 4.418 3.812 6.464 1.826 1.963 3.653 1.8 4.923 1.8a.597.597 0 00.397-.164.635.635 0 00.16-.41c0-1.308.476-1.963 1.35-1.063.952.982 1.19 1.637 2.381 1.637h2.145c.555 0 .714-.164.714-.41.08-.572-.873-1.636-1.667-2.372zM13.888 0c7.385.163 13.26 6.3 13.182 13.744C26.99 21.19 20.876 27.081 13.49 27 6.027 26.917.07 20.945.07 13.5.15 5.973 6.344-.081 13.888 0z"/></svg>