<svg width="2084" height="650" viewBox="0 0 2084 650" fill="none" xmlns="http://www.w3.org/2000/svg">
<path opacity="0.2" fill-rule="evenodd" clip-rule="evenodd" d="M609.167 534.334L884.708 57.0836L333.626 57.0837L609.167 534.334ZM609.167 532.334L882.976 58.0836L335.358 58.0837L609.167 532.334Z" fill="white"/>
<path opacity="0.2" d="M604.148 255.75L443.5 534L282.852 255.75L604.148 255.75Z" stroke="white"/>
<path opacity="0.2" fill-rule="evenodd" clip-rule="evenodd" d="M1799.51 569.014L2079.26 407.5L1799.51 245.986L1799.51 569.014ZM1800.51 567.282L2077.26 407.5L1800.51 247.718L1800.51 567.282Z" fill="white"/>
<path opacity="0.2" fill-rule="evenodd" clip-rule="evenodd" d="M1900.75 51.614L1724.91 153.136L1900.75 254.659L1900.75 51.614ZM1899.75 53.3461L1726.91 153.136L1899.75 252.927L1899.75 53.3461Z" fill="white"/>
<circle cx="334" cy="57" r="5" fill="white"/>
<circle cx="283" cy="256" r="5" fill="white"/>
<circle cx="444" cy="534" r="5" fill="white"/>
<circle cx="609" cy="533" r="5" fill="white"/>
<circle cx="884" cy="57" r="5" fill="white"/>
</svg>
