<svg width="2084" height="650" fill="none" xmlns="http://www.w3.org/2000/svg"><path opacity=".2" fill-rule="evenodd" clip-rule="evenodd" d="M609.167 534.334l275.541-477.25H333.626l275.541 477.25zm0-2l273.809-474.25H335.358l273.809 474.25z" fill="#fff"/><path opacity=".2" d="M604.148 255.75L443.5 534 282.852 255.75h321.296z" stroke="#fff"/><path opacity=".2" fill-rule="evenodd" clip-rule="evenodd" d="M1799.51 569.014L2079.26 407.5l-279.75-161.514v323.028zm1-1.732L2077.26 407.5l-276.75-159.782v319.564zm100.24-515.668l-175.84 101.522 175.84 101.523V51.614zm-1 1.732l-172.84 99.79 172.84 99.791V53.347z" fill="#fff"/><circle cx="334" cy="57" r="5" fill="#fff"/><circle cx="283" cy="256" r="5" fill="#fff"/><circle cx="444" cy="534" r="5" fill="#fff"/><circle cx="609" cy="533" r="5" fill="#fff"/><circle cx="884" cy="57" r="5" fill="#fff"/></svg>